<svg height="193" preserveAspectRatio="xMidYMid" viewBox="0 0 256 193" width="256" xmlns="http://www.w3.org/2000/svg" xmlns:xlink="http://www.w3.org/1999/xlink"><linearGradient id="a" x1="37.972569%" x2="91.120836%" y1="16.998895%" y2="76.326001%"><stop offset="0" stop-color="#c9cbce"/><stop offset="1" stop-color="#7b7a81"/></linearGradient><path d="m149.333 149.333c-53.333 0-98.659-26.713-98.659-58.713s39.993-58.62 93.326-58.62c67.357 0 98.572 25.911 98.572 57.911s-34.407 59.422-93.239 59.422m-21.333-149.333c-69.333 0-128 37.333-128 85.333 0 45.334 58.312 82.969 127.646 82.969 69.333 0 128.354-34.969 128.354-82.969s-58.667-85.333-128-85.333" fill="url(#a)"/><path d="m105.946 51.829v141.109h42.643v-54.875c10.661 0 17.011-2.328 23.986 10.452 10.661 18.292 23.987 44.423 23.987 44.423h50.638s-31.982-52.262-34.647-54.875c-4.915-5.227-10.661-5.227-18.656-7.84 15.991-2.613 30.899-9.248 36.082-23.464 4.531-13.065 3.998-29.685-5.714-40.83-8.411-8.819-17.042-14.1-38.364-14.1zm42.643 29.388h27.984c6.636 0 11.993 6.533 11.993 13.065 0 6.533-5.33 13.066-11.993 13.066h-27.984z" fill="#2165b6"/></svg>